<?xml version="1.0" standalone="no"?>
<!DOCTYPE svg PUBLIC "-//W3C//DTD SVG 20010904//EN"
 "http://www.w3.org/TR/2001/REC-SVG-20010904/DTD/svg10.dtd">
<svg version="1.0" xmlns="http://www.w3.org/2000/svg"
 width="256.000000pt" height="256.000000pt" viewBox="0 0 256.000000 256.000000"
 preserveAspectRatio="xMidYMid meet">

<g transform="translate(0.000000,256.000000) scale(0.100000,-0.100000)"
fill="#4F46E5" stroke="none">
<path d="M0 1280 l0 -1280 1280 0 1280 0 0 1280 0 1280 -1280 0 -1280 0 0
-1280z m946 508 c43 -46 168 -175 276 -286 l198 -204 0 86 0 85 -57 3 -56 3
-22 90 c-12 50 -25 100 -29 113 l-7 22 200 0 201 0 1 -27 c6 -287 7 -933 2
-936 -5 -3 -131 123 -282 279 -151 156 -277 284 -280 284 -3 0 -6 -36 -6 -80
l0 -80 53 0 c61 0 60 1 92 -127 31 -125 50 -113 -180 -113 l-200 0 0 485 c0
267 4 485 8 485 5 0 44 -37 88 -82z"/>
</g>
</svg>
